<?xml version="1.0" encoding="UTF-8" standalone="no"?>
<!DOCTYPE svg PUBLIC "-//W3C//DTD SVG 1.1//EN" "http://www.w3.org/Graphics/SVG/1.1/DTD/svg11.dtd">
<svg width="100%" height="100%" viewBox="0 0 28 28" version="1.1" xmlns="http://www.w3.org/2000/svg" xmlns:xlink="http://www.w3.org/1999/xlink" xml:space="preserve" xmlns:serif="http://www.serif.com/" style="fill-rule:evenodd;clip-rule:evenodd;stroke-linecap:round;stroke-linejoin:round;stroke-miterlimit:1.5;">
    <g transform="matrix(1,0,0,1,0,-35)">
        <g id="angleSnap" transform="matrix(0.933333,0,0,0.933333,-0.933333,4.2)">
            <rect x="1" y="33" width="30" height="30" style="fill:none;"/>
            <clipPath id="_clip1">
                <rect x="1" y="33" width="30" height="30"/>
            </clipPath>
            <g clip-path="url(#_clip1)">
                <g transform="matrix(1.07143,0,0,1.07143,1,-1.28571)">
                    <path d="M26,58L2,58L11,36" style="fill:none;stroke:black;stroke-width:4px;"/>
                </g>
                <g transform="matrix(1.07143,0,0,1.07143,1,-4.5)">
                    <g transform="matrix(1,-0,-0,1,-0,35)">
                        <path d="M16.71,19.256L20.975,21.998L25.146,19.116" style="fill:none;stroke:black;stroke-width:2.5px;stroke-linejoin:miter;stroke-miterlimit:10;"/>
                        <path d="M13.542,15.679L12.852,10.655L17.223,8.087" style="fill:none;stroke:black;stroke-width:2.5px;stroke-linejoin:miter;stroke-miterlimit:10;"/>
                        <path d="M20.975,21.998C20.748,15.665 18.913,13.662 12.852,10.655" style="fill:none;stroke:black;stroke-width:2.5px;"/>
                    </g>
                </g>
            </g>
        </g>
    </g>
</svg>
