<?xml version="1.0" encoding="UTF-8" standalone="no"?>
<!DOCTYPE svg PUBLIC "-//W3C//DTD SVG 1.1//EN" "http://www.w3.org/Graphics/SVG/1.1/DTD/svg11.dtd">
<svg width="100%" height="100%" viewBox="0 0 28 28" version="1.1" xmlns="http://www.w3.org/2000/svg" xmlns:xlink="http://www.w3.org/1999/xlink" xml:space="preserve" xmlns:serif="http://www.serif.com/" style="fill-rule:evenodd;clip-rule:evenodd;stroke-linejoin:round;stroke-miterlimit:2;">
    <g transform="matrix(1,0,0,1,-32,0)">
        <g id="distanceWarn" transform="matrix(1.74662,0,0,1.74662,26.5077,-4.33999)">
            <rect x="3.145" y="2.485" width="16.031" height="16.031" style="fill:none;"/>
            <clipPath id="_clip1">
                <rect x="3.145" y="2.485" width="16.031" height="16.031"/>
            </clipPath>
            <g clip-path="url(#_clip1)">
                <g transform="matrix(0.477112,0,0,0.477112,-14.1269,2.38937)">
                    <circle cx="53" cy="26" r="3" style="fill:rgb(194,0,0);"/>
                </g>
                <g transform="matrix(0.763379,0,0,0.593739,-22.8104,1.89106)">
                    <path d="M37,2.929C37,1.864 36.328,1 35.5,1C34.672,1 34,1.864 34,2.929L34,26.071C34,27.136 34.672,28 35.5,28C36.328,28 37,27.136 37,26.071L37,2.929Z"/>
                </g>
                <g transform="matrix(0.763379,0,0,0.593739,-9.06954,1.89106)">
                    <path d="M37,2.929C37,1.864 36.328,1 35.5,1C34.672,1 34,1.864 34,2.929L34,26.071C34,27.136 34.672,28 35.5,28C36.328,28 37,27.136 37,26.071L37,2.929Z"/>
                </g>
                <g transform="matrix(0.477112,0,0,0.572534,-8.87869,1.91226)">
                    <path d="M45,7.5C45,6.12 43.656,5 42,5C40.344,5 39,6.12 39,7.5L39,15.5C39,16.88 40.344,18 42,18C43.656,18 45,16.88 45,15.5L45,7.5Z" style="fill:rgb(194,0,0);"/>
                </g>
            </g>
        </g>
    </g>
</svg>
