<?xml version="1.0" encoding="UTF-8" standalone="no"?>
<!DOCTYPE svg PUBLIC "-//W3C//DTD SVG 1.1//EN" "http://www.w3.org/Graphics/SVG/1.1/DTD/svg11.dtd">
<svg width="100%" height="100%" viewBox="0 0 28 28" version="1.1" xmlns="http://www.w3.org/2000/svg" xmlns:xlink="http://www.w3.org/1999/xlink" xml:space="preserve" xmlns:serif="http://www.serif.com/" style="fill-rule:evenodd;clip-rule:evenodd;stroke-linecap:round;stroke-linejoin:round;stroke-miterlimit:1.5;">
    <g transform="matrix(1,0,0,1,0,-70)">
        <rect id="targetSnap" x="0" y="70" width="28" height="28" style="fill:none;"/>
        <clipPath id="_clip1">
            <rect id="targetSnap1" serif:id="targetSnap" x="0" y="70" width="28" height="28"/>
        </clipPath>
        <g clip-path="url(#_clip1)">
            <g transform="matrix(0.863636,0,0,0.863636,1.90909,10.5909)">
                <circle cx="14" cy="85" r="11" style="fill:none;stroke:black;stroke-width:4.05px;"/>
            </g>
            <g transform="matrix(1.16667,0,0,1,-2.91667,4.88498e-15)">
                <path d="M16,71.75C16,70.784 15.328,70 14.5,70C13.672,70 13,70.784 13,71.75L13,77.25C13,78.216 13.672,79 14.5,79C15.328,79 16,78.216 16,77.25L16,71.75Z" style="fill:rgb(4,0,0);"/>
            </g>
            <g transform="matrix(1.16667,0,0,1,-2.91667,19)">
                <path d="M16,71.75C16,70.784 15.328,70 14.5,70C13.672,70 13,70.784 13,71.75L13,77.25C13,78.216 13.672,79 14.5,79C15.328,79 16,78.216 16,77.25L16,71.75Z" style="fill:rgb(4,0,0);"/>
            </g>
            <g transform="matrix(3,0,0,0.388889,-39,55.0278)">
                <path d="M16,74.5C16,72.016 15.739,70 15.417,70L13.583,70C13.261,70 13,72.016 13,74.5C13,76.984 13.261,79 13.583,79L15.417,79C15.739,79 16,76.984 16,74.5Z" style="fill:rgb(4,0,0);"/>
            </g>
            <g transform="matrix(3,0,0,0.388889,-20,55.0278)">
                <path d="M16,74.5C16,72.016 15.739,70 15.417,70L13.583,70C13.261,70 13,72.016 13,74.5C13,76.984 13.261,79 13.583,79L15.417,79C15.739,79 16,76.984 16,74.5Z" style="fill:rgb(4,0,0);"/>
            </g>
            <g transform="matrix(1.66667,0,0,1.66667,-10.1667,-56.8333)">
                <circle cx="14.5" cy="84.5" r="1.5" style="fill:rgb(4,0,0);"/>
            </g>
        </g>
    </g>
</svg>
