<?xml version="1.0" encoding="UTF-8"?>
<svg xmlns="http://www.w3.org/2000/svg" width="128.8" height="136" xmlns:xlink="http://www.w3.org/1999/xlink" viewBox="0 0 128.8 136">
  <defs>
    <style>
      .cls-1, .cls-2 {
        stroke-width: 2px;
      }

      .cls-1, .cls-2, .cls-3, .cls-4 {
        stroke: #000;
        stroke-linecap: round;
        stroke-linejoin: round;
      }

      .cls-1, .cls-5 {
        fill-rule: evenodd;
      }

      .cls-2, .cls-4 {
        fill: none;
      }

      .cls-6 {
        fill: #13e57c;
        opacity: 0;
      }

      .cls-3 {
        fill: #fff;
      }

      .cls-3, .cls-4 {
        stroke-width: 3px;
      }
    </style>
    <symbol id="point" viewBox="0 0 1 1">
      <circle cx=".5" cy=".5" r=".5" fill="#13e57c" opacity="0"/>
    </symbol>
  </defs>
  <path d="M1.5,7.8H121.5V127.8H1.5V7.8Z" fill="none" stroke="#000" stroke-linecap="round" stroke-linejoin="round" stroke-width="3"/>
  <circle cx="61.5" cy="7.8" r="6.2" fill="#fff" stroke="#000" stroke-linecap="round" stroke-linejoin="round" stroke-width="3"/>
  <circle cx="61.5" cy="128.3" r="6.2" fill="#fff" stroke="#000" stroke-linecap="round" stroke-linejoin="round" stroke-width="3"/>
  <circle cx="121" cy="68" r="6.3" fill="#fff" stroke="#000" stroke-linecap="round" stroke-linejoin="round" stroke-width="3"/>
  <g>
    <path d="M26.4,30.9v23.8m10,.6V29.6" fill="none" stroke="#000" stroke-linecap="round" stroke-linejoin="round" stroke-width="2"/>
    <path d="M31.8,25.5l19,17.4-19,17.4L12.8,42.9,31.8,25.5Z" fill="none" stroke="#000" stroke-linecap="round" stroke-linejoin="round" stroke-width="2"/>
  </g>
  <path d="M31.5,97.3v2.3h-8.5v9.2h-2.7v-21h12.7v2.3h-10v7.2h8.5Zm11.5,10.6c-2.1,0-3.7-.7-5-2.1-1.3-1.4-2-3.2-2-5.6v-.5c0-1.5,.3-2.9,.9-4.1,.6-1.2,1.4-2.2,2.4-2.8,1-.7,2.1-1,3.4-1,2,0,3.5,.7,4.6,2,1.1,1.3,1.6,3.2,1.6,5.7v1.1h-10.3c0,1.5,.5,2.8,1.3,3.7,.8,.9,1.9,1.4,3.2,1.4s1.7-.2,2.3-.6c.6-.4,1.2-.9,1.7-1.5l1.6,1.3c-1.3,2-3.2,3-5.7,3h0Zm-.3-14c-1.1,0-1.9,.4-2.7,1.2-.7,.8-1.2,1.9-1.3,3.3h7.6v-.2c0-1.4-.4-2.4-1.1-3.2-.6-.7-1.5-1.1-2.6-1.1h0Z" fill-rule="evenodd"/>
  <g>
    <path d="M104,54.5l-3.3-4.3-1.7,5,5-.7" fill-rule="evenodd" stroke="#000" stroke-linecap="round" stroke-linejoin="round" stroke-width="2"/>
    <g>
      <path d="M86.5,30.2v24.4m-7.5-11.9h7.5" fill="none" stroke="#000" stroke-linecap="round" stroke-linejoin="round" stroke-width="2"/>
      <path d="M86.5,37.8l17.5-7.5m-17.5,17.5l15,5m-10,25v10.9m0,24.1v-10.9l-5-13.1" fill="none" stroke="#000" stroke-linecap="round" stroke-linejoin="round" stroke-width="2"/>
    </g>
  </g>
  <use id="topSnap" width="1" height="1" transform="translate(61 7.2)" xlink:href="#point"/>
  <use id="midSnap" width="1" height="1" transform="translate(120.5 67.5)" xlink:href="#point"/>
  <use id="bottomSnap" width="1" height="1" transform="translate(61 127.8)" xlink:href="#point"/>
</svg>
