
<svg xmlns="http://www.w3.org/2000/svg" version="1.1" xmlns:xlink="http://www.w3.org/1999/xlink" preserveAspectRatio="none" x="0px" y="0px" width="82px" height="82px" viewBox="0 0 82 82">
<defs>
<g id="pump_0_Layer0_0_FILL">
<path fill="#FFFFFF" stroke="none" d="
M 28.3 -28.3
Q 16.6 -40 0 -40 -16.6 -40 -28.3 -28.3 -40 -16.5 -40 0 -40 16.6 -28.3 28.3 -16.6 40 0 40 16.6 40 28.3 28.3 40 16.6 40 0 40 -16.5 28.3 -28.3 Z"/>
</g>

<g id="pumpSpinner_0_Layer0_0_FILL">
<path fill="#000000" stroke="none" d="
M -32.45 0.05
L -18.75 7.1 -18.75 -7.05 -32.45 0.05 Z"/>
</g>

<g id="point_0_Layer0_0_FILL">
<path fill="#FF6600" fill-opacity="0" stroke="none" d="
M 0.2 -0.2
Q 0.1 -0.25 0 -0.25 -0.1 -0.25 -0.2 -0.2 -0.25 -0.1 -0.25 0 -0.25 0.1 -0.2 0.2 -0.1 0.25 0 0.25 0.1 0.25 0.2 0.2 0.25 0.1 0.25 0 0.25 -0.1 0.2 -0.2 Z"/>
</g>

<path id="pump_0_Layer0_0_1_STROKES" stroke="#000000" stroke-width="2" stroke-linejoin="round" stroke-linecap="round" fill="none" d="
M 28.3 -28.3
Q 40 -16.5 40 0 40 16.6 28.3 28.3 16.6 40 0 40 -16.6 40 -28.3 28.3 -40 16.6 -40 0 -40 -16.5 -28.3 -28.3 -16.6 -40 0 -40 16.6 -40 28.3 -28.3 Z"/>
</defs>

<g transform="matrix( 1, 0, 0, 1, 41,41) ">
<g transform="matrix( 1, 0, 0, 1, 0,0) ">
<use xlink:href="#pump_0_Layer0_0_FILL"/>

<use xlink:href="#pump_0_Layer0_0_1_STROKES"/>
</g>

<g id="spinner" transform="matrix( 0, 1.201171875, -1.201171875, 0, 0.05,0.1) ">
<g transform="matrix( 1, 0, 0, 1, 0,0) ">
<use xlink:href="#pumpSpinner_0_Layer0_0_FILL"/>
</g>
</g>
</g>

<g id="outletSnap" transform="matrix( 1, 0, 0, 1, 41,1.25) ">
<g transform="matrix( 1, 0, 0, 1, 0,0) ">
<use xlink:href="#point_0_Layer0_0_FILL"/>
</g>
</g>

<g id="inletSnap" transform="matrix( 1, 0, 0, 1, 41,80.75) ">
<g transform="matrix( 1, 0, 0, 1, 0,0) ">
<use xlink:href="#point_0_Layer0_0_FILL"/>
</g>
</g>

<g id="caseDrainSnap" transform="matrix( 1, 0, 0, 1, 69.3,69.3) ">
<g transform="matrix( 1, 0, 0, 1, 0,0) ">
<use xlink:href="#point_0_Layer0_0_FILL"/>
</g>
</g>
</svg>
