
<svg xmlns="http://www.w3.org/2000/svg" version="1.1" xmlns:xlink="http://www.w3.org/1999/xlink" preserveAspectRatio="none" x="0px" y="0px" width="271px" height="76px" viewBox="0 0 271 76">
<rect id="boundingBox" x="0" y="7.5" width="270" height="60" visibility="hidden"/>
<defs>
<g id="pilotOn_0_Layer0_0_FILL">
<path fill="#FF0000" stroke="none" d="
M 22.5 15
L 22.5 -15 -22.5 -15 -22.5 15 22.5 15 Z"/>
</g>

<g id="pilotOff_0_Layer0_0_FILL">
<path fill="#FFFFFF" stroke="none" d="
M -22.5 -15
L -22.5 15 22.5 15 22.5 -15 -22.5 -15 Z"/>
</g>

<g id="pilot_0_Layer0_3_FILL">
<path fill="#000000" stroke="none" d="
M -22.5 15
L 3.5 0 -22.5 -15 -22.5 15 Z"/>
</g>

<g id="Layer0_0_MEMBER_4_FILL">
<path fill="#FFFFFF" stroke="none" d="
M 734.4 809
L 734.4 869 794.4 869 794.4 809 734.4 809
M 734.4 869
L 734.4 809 674.4 809 674.4 869 734.4 869
M 614.4 809
L 614.4 869 674.4 869 674.4 809 614.4 809 Z"/>
</g>

<g id="Layer0_0_MEMBER_6_FILL">
<path fill="#000000" stroke="none" d="
M 659.35 868
L 656.1 852.8 652.5 854.65 648.95 856.45 659.35 868 Z"/>
</g>

<g id="Layer0_0_MEMBER_7_FILL">
<path fill="#000000" stroke="none" d="
M 656.1 825.1
L 659.35 809.9 648.95 821.45 652.5 823.25 656.1 825.1 Z"/>
</g>

<g id="Layer0_0_MEMBER_12_FILL">
<path fill="#000000" stroke="none" d="
M 715.5 391.45
L 719.5 376.45 715.5 376.45 711.5 376.45 715.5 391.45 Z"/>
</g>

<g id="Layer0_0_MEMBER_13_FILL">
<path fill="#000000" stroke="none" d="
M 681.5 348.25
L 685.5 348.25 689.5 348.25 685.5 333.25 681.5 348.25 Z"/>
</g>

<g id="point_0_Layer0_0_FILL">
<path fill="#FF6600" fill-opacity="0" stroke="none" d="
M 0.2 -0.2
Q 0.1 -0.25 0 -0.25 -0.1 -0.25 -0.2 -0.2 -0.25 -0.1 -0.25 0 -0.25 0.1 -0.2 0.2 -0.1 0.25 0 0.25 0.1 0.25 0.2 0.2 0.25 0.1 0.25 0 0.25 -0.1 0.2 -0.2 Z"/>
</g>

<path id="pilot_0_Layer0_2_1_STROKES" stroke="#000000" stroke-width="1" stroke-linejoin="round" stroke-linecap="round" fill="none" d="
M 22.5 15
L -22.5 15 -22.5 -15 22.5 -15 22.5 15 Z"/>

<path id="Layer0_0_MEMBER_2_1_STROKES" stroke="#000000" stroke-width="1" stroke-linejoin="round" stroke-linecap="round" fill="none" d="
M 794.4 823.95
L 797.35 809 803.6 839 809.85 809 816.1 839 822.3 809 828.5 839 831.9 823.7"/>

<path id="Layer0_0_MEMBER_3_1_STROKES" stroke="#000000" stroke-width="1" stroke-linejoin="round" stroke-linecap="round" fill="none" d="
M 614.35 823.95
L 611.4 809 605.15 839 598.9 809 592.65 839 586.45 809 580.25 839 576.85 823.7"/>

<path id="Layer0_0_MEMBER_4_1_STROKES" stroke="#000000" stroke-width="2" stroke-linejoin="round" stroke-linecap="round" fill="none" d="
M 674.4 869
L 614.4 869 614.4 809 674.4 809 734.4 809 794.4 809 794.4 869 734.4 869 674.4 869 674.4 809
M 734.4 869
L 734.4 809"/>

<path id="Layer0_0_MEMBER_5_1_STROKES" stroke="#000000" stroke-width="1" stroke-linejoin="round" stroke-linecap="round" fill="none" d="
M 621.9 801.5
L 786.9 801.5"/>

<path id="Layer0_0_MEMBER_5_MEMBER_0_1_STROKES" stroke="#000000" stroke-width="1" stroke-linejoin="round" stroke-linecap="round" fill="none" d="
M 621.9 876.5
L 786.9 876.5"/>

<path id="Layer0_0_MEMBER_6_1_STROKES" stroke="#000000" stroke-width="1" stroke-linejoin="round" stroke-linecap="round" fill="none" d="
M 652.5 854.65
L 629.1 809.1"/>

<path id="Layer0_0_MEMBER_7_1_STROKES" stroke="#000000" stroke-width="1" stroke-linejoin="round" stroke-linecap="round" fill="none" d="
M 652.5 823.25
L 629.1 868.8"/>

<path id="Layer0_0_MEMBER_8_1_STROKES" stroke="#000000" stroke-width="1" stroke-linejoin="round" stroke-linecap="round" fill="none" d="
M 689.4 809
L 689.4 824 696.9 824
M 689.4 824
L 681.9 824"/>

<path id="Layer0_0_MEMBER_9_1_STROKES" stroke="#000000" stroke-width="1" stroke-linejoin="round" stroke-linecap="round" fill="none" d="
M 726.9 824
L 719.4 824 711.9 824
M 719.4 809
L 719.4 824"/>

<path id="Layer0_0_MEMBER_10_1_STROKES" stroke="#000000" stroke-width="1" stroke-linejoin="round" stroke-linecap="round" fill="none" d="
M 689.4 869
L 689.4 854 681.9 854
M 689.4 854
L 696.9 854"/>

<path id="Layer0_0_MEMBER_11_1_STROKES" stroke="#000000" stroke-width="1" stroke-linejoin="round" stroke-linecap="round" fill="none" d="
M 719.4 869
L 719.4 854 711.9 854
M 719.4 854
L 726.9 854"/>

<path id="Layer0_0_MEMBER_12_1_STROKES" stroke="#000000" stroke-width="1" stroke-linejoin="round" stroke-linecap="round" fill="none" d="
M 715.5 376.45
L 715.5 332.5"/>

<path id="Layer0_0_MEMBER_13_1_STROKES" stroke="#000000" stroke-width="1" stroke-linejoin="round" stroke-linecap="round" fill="none" d="
M 685.5 348.25
L 685.5 392.35"/>
</defs>

<g transform="matrix( -1, 0, 0, 1, 248.05,53) ">
<g id="pilotOn" transform="matrix( 1, 0, 0, 1, 0,0) ">
<g transform="matrix( 1, 0, 0, 1, 0,0) ">
<use xlink:href="#pilotOn_0_Layer0_0_FILL"/>
</g>
</g>

<g id="pilotOff" transform="matrix( 1, 0, 0, 1, 0,0) ">
<g transform="matrix( 1, 0, 0, 1, 0,0) ">
<use xlink:href="#pilotOff_0_Layer0_0_FILL"/>
</g>
</g>

<g transform="matrix( 1, 0, 0, 1, 0,0) ">
<use xlink:href="#pilot_0_Layer0_2_1_STROKES"/>
</g>

<g transform="matrix( 1, 0, 0, 1, 0,0) ">
<use xlink:href="#pilot_0_Layer0_3_FILL"/>
</g>
</g>

<g transform="matrix( 1, 0, 0, 1, 23,53) ">
<g id="pilotOn_FL" transform="matrix( 1, 0, 0, 1, 0,0) ">
<g transform="matrix( 1, 0, 0, 1, 0,0) ">
<use xlink:href="#pilotOn_0_Layer0_0_FILL"/>
</g>
</g>

<g id="pilotOff_FL" transform="matrix( 1, 0, 0, 1, 0,0) ">
<g transform="matrix( 1, 0, 0, 1, 0,0) ">
<use xlink:href="#pilotOff_0_Layer0_0_FILL"/>
</g>
</g>

<g transform="matrix( 1, 0, 0, 1, 0,0) ">
<use xlink:href="#pilot_0_Layer0_2_1_STROKES"/>
</g>

<g transform="matrix( 1, 0, 0, 1, 0,0) ">
<use xlink:href="#pilot_0_Layer0_3_FILL"/>
</g>
</g>

<g transform="matrix( 1, 0, 0, 1, -568.85,-801) ">
<use xlink:href="#Layer0_0_MEMBER_2_1_STROKES"/>
</g>

<g transform="matrix( 1, 0, 0, 1, -568.85,-801) ">
<use xlink:href="#Layer0_0_MEMBER_3_1_STROKES"/>
</g>

<g transform="matrix( 1, 0, 0, 1, -568.85,-801) ">
<use xlink:href="#Layer0_0_MEMBER_4_FILL"/>

<use xlink:href="#Layer0_0_MEMBER_4_1_STROKES"/>
</g>

<g transform="matrix( 1, 0, 0, 1, -568.85,-801) ">
<use xlink:href="#Layer0_0_MEMBER_5_1_STROKES"/>
</g>

<g transform="matrix( 1, 0, 0, 1, -568.85,-801) ">
<use xlink:href="#Layer0_0_MEMBER_5_MEMBER_0_1_STROKES"/>
</g>

<g transform="matrix( 1, 0, 0, 1, -568.85,-801) ">
<use xlink:href="#Layer0_0_MEMBER_6_FILL"/>

<use xlink:href="#Layer0_0_MEMBER_6_1_STROKES"/>
</g>

<g transform="matrix( 1, 0, 0, 1, -568.85,-801) ">
<use xlink:href="#Layer0_0_MEMBER_7_FILL"/>

<use xlink:href="#Layer0_0_MEMBER_7_1_STROKES"/>
</g>

<g transform="matrix( 1, 0, 0, 1, -568.85,-801) ">
<use xlink:href="#Layer0_0_MEMBER_8_1_STROKES"/>
</g>

<g transform="matrix( 1, 0, 0, 1, -568.85,-801) ">
<use xlink:href="#Layer0_0_MEMBER_9_1_STROKES"/>
</g>

<g transform="matrix( 1, 0, 0, 1, -568.85,-801) ">
<use xlink:href="#Layer0_0_MEMBER_10_1_STROKES"/>
</g>

<g transform="matrix( 1, 0, 0, 1, -568.85,-801) ">
<use xlink:href="#Layer0_0_MEMBER_11_1_STROKES"/>
</g>

<g transform="matrix( 1, 0, 0, 1, -504.95,-324.35) ">
<use xlink:href="#Layer0_0_MEMBER_12_FILL"/>

<use xlink:href="#Layer0_0_MEMBER_12_1_STROKES"/>
</g>

<g transform="matrix( 1, 0, 0, 1, -504.95,-324.35) ">
<use xlink:href="#Layer0_0_MEMBER_13_FILL"/>

<use xlink:href="#Layer0_0_MEMBER_13_1_STROKES"/>
</g>

<g id="pSnap" transform="matrix( 1, 0, 0, 1, 120.55,67.75) ">
<g transform="matrix( 1, 0, 0, 1, 0,0) ">
<use xlink:href="#point_0_Layer0_0_FILL"/>
</g>
</g>

<g id="tSnap" transform="matrix( 1, 0, 0, 1, 150.55,67.75) ">
<g transform="matrix( 1, 0, 0, 1, 0,0) ">
<use xlink:href="#point_0_Layer0_0_FILL"/>
</g>
</g>

<g id="aSnap" transform="matrix( 1, 0, 0, 1, 120.55,8.25) ">
<g transform="matrix( 1, 0, 0, 1, 0,0) ">
<use xlink:href="#point_0_Layer0_0_FILL"/>
</g>
</g>

<g id="bSnap" transform="matrix( 1, 0, 0, 1, 150.55,8.25) ">
<g transform="matrix( 1, 0, 0, 1, 0,0) ">
<use xlink:href="#point_0_Layer0_0_FILL"/>
</g>
</g>

<g id="rightPilotSnap" transform="matrix( 1, 0, 0, 1, 270.3,53) ">
<g transform="matrix( 1, 0, 0, 1, 0,0) ">
<use xlink:href="#point_0_Layer0_0_FILL"/>
</g>
</g>

<g id="leftPilotSnap" transform="matrix( 1, 0, 0, 1, 0.75,53) ">
<g transform="matrix( 1, 0, 0, 1, 0,0) ">
<use xlink:href="#point_0_Layer0_0_FILL"/>
</g>
</g>
</svg>
