<?xml version="1.0" encoding="utf-8"?>
<!-- Generator: Adobe Illustrator 26.0.3, SVG Export Plug-In . SVG Version: 6.00 Build 0)  -->
<svg version="1.1" id="Layer_1" xmlns="http://www.w3.org/2000/svg" xmlns:xlink="http://www.w3.org/1999/xlink" x="0px" y="0px"
	 viewBox="0 0 60 120" style="enable-background:new 0 0 60 120;" xml:space="preserve">
<style type="text/css">
	.st0{fill:#FFFFFF;}
	.st1{fill:#0099FF;}
	.st2{fill:#0000FF;}
	.st3{fill:none;stroke:#000000;stroke-width:1;stroke-linecap:round;stroke-linejoin:round;}
	.st4{fill:#00FF00;fill-opacity:0;}
</style>
<g id="accumulator" transform="matrix( 1, 0, 0, 1, 32.5,62.6) ">
	<g transform="matrix( 1, 0, 0, 1, 0,0) ">
		<g>
			<g id="accumulator_0_Layer0_0_FILL">
				<path class="st0" d="M27.5-33.3c-0.3-7.9-3.3-14.6-8.8-20.3c-5.8-6-12.9-8.9-21.2-8.9c-8.3,0-15.3,3-21.2,8.9
					c-5.5,5.7-8.4,12.5-8.7,20.3v60.8c0.2,8.1,3.1,15,8.7,20.8c5.9,6,13,9,21.3,9c8.3,0,15.3-3,21.1-9c5.9-6,8.9-13.2,8.9-21.6
					V-33.3z"/>
			</g>
		</g>
	</g>
	<g id="topField" transform="matrix( 1, 0, 0, 1, 0,29.85) ">
		<g transform="matrix( 1, 0, 0, 1, 0,0) ">
			<g>
				<g id="topAccumulatorField_0_Layer0_0_FILL">
					<path class="st1" d="M27.5-2.9v-59.7h-60v59.9h60C27.5-2.7,27.5-2.8,27.5-2.9z"/>
				</g>
			</g>
		</g>
	</g>
	<g id="bottomField" transform="matrix( 1, 0, 0, 1, 0,44.75) ">
		<g transform="matrix( 1, 0, 0, 1, 0,0) ">
			<g>
				<g id="bottomAccumulatorField_0_Layer0_0_FILL">
					<path class="st2" d="M27.5-16.9c0-0.2,0-0.5,0-0.7h-60c0,0.2,0,0.3,0,0.5c0,0.1,0,0.1,0,0.2v0.1c0.3,7.9,3.2,14.7,8.7,20.4
						c5.9,6,13,9,21.3,9c8.3,0,15.3-3,21.1-9C24.2-2.1,27.1-8.9,27.5-16.9L27.5-16.9L27.5-16.9z"/>
				</g>
			</g>
		</g>
	</g>
	<g transform="matrix( 1, 0, 0, 1, 0,0) ">
		<g>
			<path id="accumulator_0_Layer0_3_1_STROKES" class="st3" d="M18.6-53.7c-5.8-6-12.9-8.9-21.2-8.9c-8.3,0-15.3,3-21.2,8.9
				c-5.5,5.7-8.4,12.5-8.7,20.3v60.8c0.2,8.1,3.1,15,8.7,20.8c5.9,6,13,9,21.3,9c8.3,0,15.3-3,21.1-9c5.9-6,8.9-13.2,8.9-21.6v-60
				C27.2-41.2,24.2-48,18.6-53.7z"/>
		</g>
	</g>
	<g id="level" transform="matrix( 1, 0, 0, 1, 0,-36.5) ">
		<g transform="matrix( 1, 0, 0, 1, 0,0) ">
			<g>
				<path id="accumLevel_0_Layer0_0_1_STROKES" class="st3" d="M-32.1,3.9h59.2"/>
			</g>
		</g>
		<g transform="matrix( 1, 0, 0, 1, 0,0) ">
			<g>
				<g id="accumLevel_0_Layer0_1_FILL">
					<path class="st0" d="M-2.5,3.9L5-9.1h-15L-2.5,3.9z"/>
				</g>
			</g>
			<g>
				<path id="accumLevel_0_Layer0_1_1_STROKES" class="st3" d="M-2.5,3.9l-7.5-13H5L-2.5,3.9z"/>
			</g>
		</g>
	</g>
</g>
<g id="accumulatorSnap" transform="matrix( 1, 0, 0, 1, 32.5,122.6) ">
	<g transform="matrix( 1, 0, 0, 1, 0,0) ">
		<g>
			<g id="snap_0_Layer0_0_FILL">
				<path class="st4" d="M-0.3-64.8c-0.6-0.6-1.3-0.9-2.2-0.9s-1.6,0.3-2.2,0.9s-0.9,1.3-0.9,2.2c0,0.9,0.3,1.6,0.9,2.2
					c0.6,0.6,1.3,0.9,2.2,0.9s1.6-0.3,2.2-0.9c0.6-0.6,0.9-1.3,0.9-2.2C0.6-63.5,0.3-64.2-0.3-64.8z"/>
			</g>
		</g>
	</g>
</g>
</svg>
